<?xml version="1.0" encoding="iso-8859-1"?>
<!-- Uploaded to: SVG Repo, www.svgrepo.com, Generator: SVG Repo Mixer Tools -->
<svg version="1.1" id="Layer_1" xmlns="http://www.w3.org/2000/svg" xmlns:xlink="http://www.w3.org/1999/xlink" 
	 viewBox="0 0 512 512" xml:space="preserve">
<path style="fill:#F60A53;" d="M183.606,31.865c0,39.789,32.431,72.044,72.22,72.044s72.22-32.255,72.22-72.044V7.334h-144.44
	L183.606,31.865L183.606,31.865z"/>
<path style="fill:#B62F78;" d="M231.753,31.865V7.334h-48.147v24.531c0,39.788,32.43,72.044,72.219,72.044
	c8.434,0,16.464-1.524,23.985-4.188C251.849,89.821,231.753,63.219,231.753,31.865z"/>
<rect x="231.983" y="7.85" style="fill:#FFFFFF;" width="48.029" height="48.029"/>
<path style="fill:#FBB516;" d="M440.112,504.15V143.932l0,0c-35.368,0-64.039-28.671-64.039-64.039V7.85h-48.029v24.015
	c0,41.376-34.879,74.604-76.84,71.888c-38.291-2.479-67.248-35.984-67.248-74.356V7.85l0,0h-48.029v72.044
	c0,35.368-28.671,64.039-64.039,64.039l0,0v360.218h368.225V504.15z"/>
<path style="fill:#91E713;" d="M71.89,167.947l52.267-30.489c27.871-16.258,61.338-19.904,92.055-10.031l116.35,37.398
	c37.062,11.913,77.643,4.03,107.55-20.892l0,0V504.15H71.89V167.947z"/>
<path style="fill:#FE702D;" d="M71.89,504.15V223.981l39.076-28.419c30.736-22.354,70.376-28.488,106.431-16.469l141.797,47.266
	c26.405,8.801,55.077,7.959,80.92-2.378l0,0v280.17L71.89,504.15L71.89,504.15z"/>
<path style="fill:#F60A53;" d="M71.89,504.15V336.048l0,0c35.849,10.243,74.309,5.68,106.767-12.665l85.003-48.045
	c31.06-17.556,67.673-22.518,102.285-13.866l74.168,18.543v224.136H71.89V504.15z"/>
<circle style="fill:#FFFFFF;" cx="256.004" cy="288.021" r="112.066"/>
<path style="fill:#A645CB;" d="M71.89,504.15v-80.049l0,0c40.635-25.397,90.357-31.714,136.051-17.284l11.243,3.55
	c43.854,13.848,91.511,8.612,131.31-14.43l89.62-51.885v160.097H71.89V504.15z"/>
<rect x="71.885" y="480.136" style="fill:#FBB516;" width="368.227" height="24.015"/>
<path d="M312.346,0.007H200.353v15.7h24.073v47.1h62.8v-47.1h25.12V0.007z M271.526,47.107h-31.4v-31.4h31.4V47.107z"/>
<path d="M256,407.937c-66.123,0-119.917-53.795-119.917-119.917S189.877,168.103,256,168.103
	c66.124,0,119.918,53.794,119.918,119.917S322.124,407.937,256,407.937z M256,183.802c-57.465,0-104.217,46.751-104.217,104.217
	S198.535,392.236,256,392.236c57.466,0,104.218-46.752,104.218-104.217S313.466,183.802,256,183.802z"/>
<path style="fill:#FBB516;" d="M256,192.116c-52.881,0-95.903,43.022-95.903,95.903s43.022,95.903,95.903,95.903
	s95.904-43.022,95.904-95.903S308.882,192.116,256,192.116z M336.204,288.02c0,19.577-7.06,37.529-18.755,51.469l-54.296-53.711
	v-77.626C304.037,211.785,336.204,246.208,336.204,288.02z M247.453,367.762c-16.241-1.729-31.044-8.327-42.929-18.301
	l42.929-43.401V367.762z M263.153,307.863l43.081,42.616c-12.013,9.681-26.856,15.967-43.081,17.409L263.153,307.863
	L263.153,307.863z M247.453,208.277v75.458l-53.917,54.51c-11.083-13.757-17.739-31.225-17.739-50.225
	C175.797,246.683,207.234,212.559,247.453,208.277z"/>
<rect x="112.433" y="472.056" style="fill:#FFFFFF;" width="23.027" height="15.7"/>
<path d="M440.111,136.082c-30.983,0-56.189-25.206-56.189-56.189V0h-63.729v31.865c0,17.936-7.21,34.572-20.302,46.845
	c-13.082,12.263-30.191,18.369-48.179,17.21c-33.592-2.175-59.905-31.396-59.905-66.523V0h-63.729v79.893
	c0,30.982-25.206,56.189-56.189,56.189h-7.85V512h383.923V136.082H440.111z M79.74,496.3v-8.548h24.32v-15.7H79.74V151.356
	c35.961-3.922,64.039-34.475,64.039-71.463V15.7h32.329v13.697c0,43.38,32.765,79.482,74.592,82.19
	c22.353,1.445,43.647-6.161,59.93-21.423c16.057-15.051,25.266-36.3,25.266-58.299V15.7h32.329v64.193
	c0,36.988,28.077,67.541,64.039,71.463v320.696H142.786v15.7h289.475v8.548H79.74z"/>
</svg>